<svg width="179" height="30" viewBox="0 0 179 30" fill="none" xmlns="http://www.w3.org/2000/svg">
<path d="M26.7342 6.89566C28.0385 6.89941 29.2882 7.4 30.2104 8.2881C31.1327 9.17619 31.6525 10.3796 31.6564 11.6356V21.1144C31.6525 22.3704 31.1327 23.5738 30.2104 24.4619C29.2882 25.35 28.0385 25.8506 26.7342 25.8543H16.8908C15.5865 25.8506 14.3368 25.35 13.4146 24.4619C12.4923 23.5738 11.9725 22.3704 11.9686 21.1144V11.6356C11.9725 10.3796 12.4923 9.17619 13.4146 8.2881C14.3368 7.4 15.5865 6.89941 16.8908 6.89566H26.7342ZM26.7342 5H16.8908C13.1008 5 10 7.98594 10 11.6356V21.1144C10 24.7641 13.1008 27.75 16.8908 27.75H26.7342C30.5242 27.75 33.625 24.7641 33.625 21.1144V11.6356C33.625 7.98594 30.5242 5 26.7342 5Z" fill="white"/>
<path d="M28.2108 11.6357C27.9187 11.6357 27.6332 11.5524 27.3904 11.3961C27.1476 11.2399 26.9584 11.0178 26.8466 10.758C26.7348 10.4982 26.7056 10.2123 26.7626 9.93647C26.8195 9.66066 26.9602 9.4073 27.1667 9.20845C27.3732 9.0096 27.6363 8.87418 27.9227 8.81931C28.2091 8.76445 28.506 8.79261 28.7758 8.90023C29.0456 9.00784 29.2762 9.19009 29.4385 9.42392C29.6007 9.65774 29.6873 9.93265 29.6873 10.2139C29.6877 10.4007 29.6498 10.5858 29.5758 10.7585C29.5017 10.9312 29.393 11.0881 29.2558 11.2202C29.1186 11.3523 28.9556 11.457 28.7763 11.5283C28.597 11.5996 28.4048 11.6361 28.2108 11.6357ZM21.8125 12.5833C22.5913 12.5833 23.3526 12.8057 24.0002 13.2224C24.6477 13.639 25.1524 14.2312 25.4504 14.9241C25.7485 15.617 25.8264 16.3794 25.6745 17.1149C25.5226 17.8505 25.1476 18.5261 24.5969 19.0564C24.0462 19.5867 23.3445 19.9478 22.5807 20.0941C21.8169 20.2404 21.0251 20.1654 20.3056 19.8784C19.5861 19.5914 18.9711 19.1054 18.5384 18.4818C18.1058 17.8582 17.8748 17.1251 17.8748 16.3752C17.8759 15.3698 18.2912 14.406 19.0294 13.6951C19.7676 12.9842 20.7685 12.5844 21.8125 12.5833ZM21.8125 10.6877C20.6444 10.6877 19.5024 11.0212 18.5312 11.6462C17.5599 12.2711 16.8029 13.1594 16.3558 14.1986C15.9088 15.2379 15.7918 16.3815 16.0197 17.4847C16.2476 18.588 16.8101 19.6014 17.6361 20.3968C18.4622 21.1922 19.5145 21.7339 20.6602 21.9534C21.8059 22.1728 22.9935 22.0602 24.0727 21.6297C25.1519 21.1992 26.0744 20.4703 26.7234 19.535C27.3724 18.5997 27.7187 17.5 27.7187 16.3752C27.7187 14.8667 27.0965 13.4201 25.9888 12.3535C24.8812 11.2869 23.3789 10.6877 21.8125 10.6877Z" fill="white"/>
<g clip-path="url(#clip0_2_67)">
<path d="M123.469 8.39942C122.519 8.81199 121.515 9.0838 120.487 9.20626C121.567 8.57365 122.379 7.56863 122.772 6.3797C121.75 6.97696 120.635 7.39603 119.472 7.61895C118.983 7.10613 118.395 6.69816 117.743 6.41985C117.091 6.14154 116.389 5.9987 115.68 6.00001C112.811 6.00001 110.488 8.28868 110.488 11.11C110.486 11.5024 110.531 11.8937 110.622 12.2754C108.564 12.1789 106.549 11.654 104.706 10.7341C102.863 9.81425 101.231 8.51974 99.9171 6.93341C99.4559 7.71077 99.2121 8.59773 99.2109 9.50157C99.2109 11.2734 100.135 12.8397 101.531 13.7572C100.704 13.7376 99.8942 13.5187 99.1698 13.1192V13.1824C99.1698 15.6609 100.963 17.7229 103.336 18.1922C102.89 18.3112 102.43 18.3714 101.968 18.3715C101.64 18.3721 101.313 18.3403 100.992 18.2766C101.651 20.3068 103.572 21.7834 105.846 21.8256C103.998 23.2499 101.729 24.0197 99.3955 24.0141C98.9813 24.0135 98.5676 23.9888 98.1562 23.9402C100.53 25.4559 103.289 26.2577 106.105 26.25C115.669 26.25 120.894 18.4611 120.894 11.7059C120.894 11.4844 120.888 11.2629 120.878 11.0467C121.892 10.3253 122.769 9.42886 123.469 8.39942Z" fill="white"/>
</g>
<path d="M156.315 4C149.687 4 144.312 9.37201 144.312 15.9973C144.312 20.9087 147.27 25.1292 151.498 26.9877C151.466 26.1522 151.493 25.1453 151.707 24.2348C151.937 23.26 153.25 17.6952 153.25 17.6952C153.25 17.6952 152.864 16.9293 152.864 15.7992C152.864 14.021 153.893 12.6927 155.179 12.6927C156.272 12.6927 156.797 13.5122 156.797 14.4923C156.797 15.5903 156.095 17.2292 155.736 18.7503C155.436 20.025 156.374 21.0587 157.633 21.0587C159.905 21.0587 161.438 18.1397 161.438 14.6798C161.438 12.05 159.664 10.0844 156.444 10.0844C152.805 10.0844 150.534 12.7998 150.534 15.8313C150.534 16.8757 150.844 17.6148 151.327 18.1825C151.546 18.445 151.578 18.5521 151.498 18.852C151.439 19.0716 151.31 19.6019 151.252 19.8161C151.171 20.1214 150.925 20.2285 150.651 20.116C148.974 19.4305 148.192 17.5988 148.192 15.5314C148.192 12.125 151.069 8.03838 156.771 8.03838C161.352 8.03838 164.369 11.3537 164.369 14.9101C164.369 19.6179 161.749 23.1314 157.891 23.1314C156.594 23.1314 155.378 22.4298 154.96 21.6371C154.96 21.6371 154.263 24.4008 154.113 24.9364C153.861 25.863 153.363 26.7842 152.907 27.5073C154.012 27.833 155.158 27.999 156.31 28C162.938 28 168.312 22.628 168.312 16.0027C168.312 9.37737 162.943 4 156.315 4Z" fill="white"/>
<path fill-rule="evenodd" clip-rule="evenodd" d="M77.625 16.375C77.625 10.0934 72.3357 5 65.8125 5C59.2893 5 54 10.0934 54 16.375C54 22.0523 58.3189 26.7582 63.9668 27.6124V19.6641H60.9667V16.375H63.9668V13.8689C63.9668 11.0186 65.7308 9.44285 68.4287 9.44285C69.7212 9.44285 71.0733 9.66527 71.0733 9.66527V12.4648H69.583C68.1165 12.4648 67.6577 13.3413 67.6577 14.2422V16.375H70.9335L70.4104 19.6641H67.6582V27.6134C73.3061 26.7598 77.625 22.0539 77.625 16.375Z" fill="white"/>
<defs>
<clipPath id="clip0_2_67">
<rect width="26" height="21" fill="white" transform="translate(98 6)"/>
</clipPath>
</defs>
</svg>
